<svg width="95" height="69" viewBox="0 0 95 69" fill="none" xmlns="http://www.w3.org/2000/svg">
<path d="M56.4788 57.9849C56.4788 61.9094 52.4762 65.0909 47.5387 65.0909C42.6013 65.0909 38.5986 61.9094 38.5986 57.9849C38.5986 54.0604 42.6013 50.8789 47.5387 50.8789C52.4762 50.8789 56.4788 54.0604 56.4788 57.9849Z" fill="#4596FF"/>
<path d="M13.5522 40.6145L24.1241 44.8781L30.7937 48.8575L34.0575 50.705L38.5278 54.1159L39.5919 55.8213L38.5278 55.2529L35.3347 53.6895L32.3546 52.1262L22.705 48.0047L13.5522 41.183V40.6145Z" fill="#CBB0AE"/>
<path d="M14.1132 38.6249L17.377 38.6249L17.377 37.63L19.2218 34.0771L23.9047 36.9195L34.122 44.594L38.3793 48.7154L40.6498 51.7L46.829 61.2538L47.3967 61.2538L47.3967 64.5225L45.8357 64.5225L42.4299 62.3907L41.5785 61.2538L39.6564 56.1057L38.3793 54.116L34.1221 50.8472L23.9048 44.8782L13.5456 40.6146L14.1132 38.6249Z" fill="white"/>
<path d="M81.2412 40.6145L70.9531 44.736L64.2124 48.7153L60.6647 50.8471L56.4075 54.1159L55.2015 55.9634L56.4075 55.332L59.6006 53.7686L62.5807 52.2053L72.2303 48.0838L81.3831 41.2621L81.2412 40.6145Z" fill="#CBB0AE"/>
<path d="M80.6802 38.625L77.4164 38.625L77.4164 37.6301L75.5716 34.0771L70.8887 36.9195L60.6715 44.594L56.4142 48.7155L54.1437 51.7L47.9644 61.2538L47.3968 61.2538L47.3968 64.5226L48.9578 64.5226L49.5254 64.2065L52.3635 62.3908L53.215 61.2538L55.137 56.1057L56.4142 54.116L60.6714 50.8473L70.8887 44.8782L81.2479 40.6146L80.6802 38.625Z" fill="white"/>
<path d="M2.0976 47.8987L40.444 59.5337L42.58 62.5135L45.5383 64.4921L45.961 64.6332L47.5114 64.632L47.5105 65.764L45.9601 65.7653L45.5372 65.7656L42.5787 64.07L39.8484 61.5026L1.502 49.8676L2.0976 47.8987Z" fill="#FD6363"/>
<path d="M92.9141 47.9028L54.5676 59.5378L52.4317 62.5176L49.4734 64.4962L49.0507 64.6373L47.5003 64.6361L47.5012 65.7681L49.0516 65.7693L49.4744 65.7697L52.4329 64.0741L55.1632 61.5067L93.5097 49.8716L92.9141 47.9028Z" fill="#FD6363"/>
<path d="M1.62644 50.7049L10.4036 55.9621L38.1586 65.055L44.5297 68.1809L47.5045 68.1807L47.5101 65.7536L45.6655 65.7651L43.1171 64.3443L42.6924 64.0601L40.0036 61.5025L1.48565 49.8523L1.62644 50.7049Z" fill="#FC3434"/>
<path d="M93.3736 50.7049L84.5964 55.9621L56.8414 65.055L50.4703 68.1809L47.4955 68.1807L47.4899 65.7536L49.3345 65.7651L51.8829 64.3443L52.3076 64.0601L54.9964 61.5025L93.5143 49.8523L93.3736 50.7049Z" fill="#FC3434"/>
<path d="M2.37014 46.8677L37.957 57.5835L40.2059 58.4299L42.7291 62.1157L45.5376 64.2388L46.2404 64.521L47.2252 64.5185L47.5066 64.5178L47.5063 64.6598L47.2249 64.6605L45.9586 64.6637L45.5369 64.5228L43.149 62.9667L42.447 62.4005L40.3438 59.5656L2.09023 47.9025L2.37014 46.8677Z" fill="white"/>
<path d="M92.6367 46.8677L57.0499 57.5835L54.8009 58.4299L52.2777 62.1157L49.4692 64.2388L48.7665 64.521L47.7816 64.5185L47.5002 64.5178L47.5006 64.6598L47.782 64.6605L49.0482 64.6637L49.4699 64.5228L51.8578 62.9667L52.5054 62.5009L54.6631 59.5656L92.9166 47.9025L92.6367 46.8677Z" fill="white"/>
<path d="M8.20825 47.01L10.4932 47.5785L21.2636 50.7051L32.758 54.9687L39.308 58.0954L36.3057 57.1005L29.2104 54.9687L15.0197 50.7051L10.4932 49.3013L8.20825 48.7154L8.20825 47.01Z" fill="#CBB0AE"/>
<path d="M8.20825 43.5991L22.1151 47.7206L32.4743 52.1263L40.2791 56.1057L42.288 61.5062L40.2791 58.6638L37.0153 57.1005L32.4743 54.9687L22.1151 51.1315L14.8779 48.8576L8.20825 47.01V43.5991Z" fill="white"/>
<path d="M86.8689 47.01L84.584 47.5785L73.8135 50.7051L62.3191 54.9687L55.7692 58.0954L58.7714 57.1005L65.8668 54.9687L80.0574 50.7051L84.584 49.3013L86.8689 48.7154L86.8689 47.01Z" fill="#CBB0AE"/>
<path d="M86.8689 43.5991L72.9621 47.7206L62.6029 52.1263L54.798 56.1057L52.7891 61.5062L54.798 58.6638L58.0619 57.1005L62.6029 54.9687L72.9621 51.1315L80.1993 48.8576L86.8689 47.01V43.5991Z" fill="white"/>
<path d="M13.5522 40.6145L24.1241 44.8781L30.7937 48.8575L34.0575 50.705L38.5278 54.1159L39.5919 55.8213L38.5278 55.2529L35.3347 53.6895L32.3546 52.1262L22.705 48.0047L13.5522 41.183V40.6145Z" fill="#CBB0AE"/>
<path d="M14.1132 38.6249L17.377 38.6249L17.377 37.63L19.2218 34.0771L23.9047 36.9195L34.122 44.594L38.3793 48.7154L40.6498 51.7L46.829 61.2538L47.3967 61.2538L47.3967 64.5225L45.8357 64.5225L42.4299 62.3907L41.5785 61.2538L39.6564 56.1057L38.3793 54.116L34.1221 50.8472L23.9048 44.8782L13.5456 40.6146L14.1132 38.6249Z" fill="white"/>
<path d="M81.2412 40.6145L70.9531 44.736L64.2124 48.7153L60.6647 50.8471L56.4075 54.1159L55.2015 55.9634L56.4075 55.332L59.6006 53.7686L62.5807 52.2053L72.2303 48.0838L81.3831 41.2621L81.2412 40.6145Z" fill="#CBB0AE"/>
<path d="M80.6802 38.625L77.4164 38.625L77.4164 37.6301L75.5716 34.0771L70.8887 36.9195L60.6715 44.594L56.4142 48.7155L54.1437 51.7L47.9644 61.2538L47.3968 61.2538L47.3968 64.5226L48.9578 64.5226L49.5254 64.2065L52.3635 62.3908L53.215 61.2538L55.137 56.1057L56.4142 54.116L60.6714 50.8473L70.8887 44.8782L81.2479 40.6146L80.6802 38.625Z" fill="white"/>
<path d="M2.0976 47.8987L40.444 59.5337L42.58 62.5135L45.5383 64.4921L45.961 64.6332L47.5114 64.632L47.5105 65.764L45.9601 65.7653L45.5372 65.7656L42.5787 64.07L39.8484 61.5026L1.502 49.8676L2.0976 47.8987Z" fill="#FD6363"/>
<path d="M92.9141 47.9028L54.5676 59.5378L52.4317 62.5176L49.4734 64.4962L49.0507 64.6373L47.5003 64.6361L47.5012 65.7681L49.0516 65.7693L49.4744 65.7697L52.4329 64.0741L55.1632 61.5067L93.5097 49.8716L92.9141 47.9028Z" fill="#FD6363"/>
<path d="M1.62644 50.7049L10.4036 55.9621L38.1586 65.055L44.5297 68.1809L47.5045 68.1807L47.5101 65.7536L45.6655 65.7651L43.1171 64.3443L42.6924 64.0601L40.0036 61.5025L1.48565 49.8523L1.62644 50.7049Z" fill="#FC3434"/>
<path d="M93.3736 50.7049L84.5964 55.9621L56.8414 65.055L50.4703 68.1809L47.4955 68.1807L47.4899 65.7536L49.3345 65.7651L51.8829 64.3443L52.3076 64.0601L54.9964 61.5025L93.5143 49.8523L93.3736 50.7049Z" fill="#FC3434"/>
<path d="M2.37014 46.8677L37.957 57.5835L40.2059 58.4299L42.7291 62.1157L45.5376 64.2388L46.2404 64.521L47.2252 64.5185L47.5066 64.5178L47.5063 64.6598L47.2249 64.6605L45.9586 64.6637L45.5369 64.5228L43.149 62.9667L42.447 62.4005L40.3438 59.5656L2.09023 47.9025L2.37014 46.8677Z" fill="white"/>
<path d="M92.6367 46.8677L57.0499 57.5835L54.8009 58.4299L52.2777 62.1157L49.4692 64.2388L48.7665 64.521L47.7816 64.5185L47.5002 64.5178L47.5006 64.6598L47.782 64.6605L49.0482 64.6637L49.4699 64.5228L51.8578 62.9667L52.5054 62.5009L54.6631 59.5656L92.9166 47.9025L92.6367 46.8677Z" fill="white"/>
<path d="M8.20825 47.01L10.4932 47.5785L21.2636 50.7051L32.758 54.9687L39.308 58.0954L36.3057 57.1005L29.2104 54.9687L15.0197 50.7051L10.4932 49.3013L8.20825 48.7154L8.20825 47.01Z" fill="#CBB0AE"/>
<path d="M8.20825 43.5991L22.1151 47.7206L32.4743 52.1263L40.2791 56.1057L42.288 61.5062L40.2791 58.6638L37.0153 57.1005L32.4743 54.9687L22.1151 51.1315L14.8779 48.8576L8.20825 47.01V43.5991Z" fill="white"/>
<path d="M86.8689 47.01L84.584 47.5785L73.8135 50.7051L62.3191 54.9687L55.7692 58.0954L58.7714 57.1005L65.8668 54.9687L80.0574 50.7051L84.584 49.3013L86.8689 48.7154L86.8689 47.01Z" fill="#CBB0AE"/>
<path d="M86.8689 43.5991L72.9621 47.7206L62.6029 52.1263L54.798 56.1057L52.7891 61.5062L54.798 58.6638L58.0619 57.1005L62.6029 54.9687L72.9621 51.1315L80.1993 48.8576L86.8689 47.01V43.5991Z" fill="white"/>
<path d="M49.6673 0H51.9378L38.8824 32.9718H38.5986L49.6673 0Z" fill="#FEFCC7"/>
<path d="M47.9645 26.4343H57.0465L54.6341 28.424H47.6807L47.9645 26.4343Z" fill="#FEFCC7"/>
<path d="M51.9377 0L47.8224 28.424L48.3901 30.1294H47.5386H44.6454H40.0176L51.9377 0Z" fill="#FCBD15"/>
<path d="M47.7786 28.4241H54.6339L49.2415 40.0779L49.5253 33.3983L47.7786 28.4241Z" fill="#FCBD15"/>
<path d="M47.5386 30.1294H48.3901L49.5253 33.3982L49.3397 39.7936L54.6339 28.424L57.0464 26.4343L47.3967 48.8893H46.8291L47.1129 32.9718H38.8823L40.0176 30.1294H47.5386Z" fill="#FF7A06"/>
<path d="M68.5409 26.4343L69.96 27.7134L54.4922 46.0469L68.5409 26.4343Z" fill="#FCBD15"/>
<path d="M26.1107 26.4343L24.6916 27.7134L40.1594 46.0469L26.1107 26.4343Z" fill="#FCBD15"/>
</svg>
